<svg viewBox="0 0 64 64" xmlns="http://www.w3.org/2000/svg" role="img" aria-labelledby="svg-minipictogram-aicodeexplainer-title svg-minipictogram-aicodeexplainer-desc">
  <title id="svg-minipictogram-aicodeexplainer-title">AI Code Explainer - Understand Code Without Uploading It</title>
  <desc id="svg-minipictogram-aicodeexplainer-desc">A code window with angle brackets under a magnifying glass, and a speech bubble of plain sentences coming out of the lens - pasted code turned into a plain explanation, all on your device.</desc>
  <rect x="4" y="4" width="56" height="56" rx="12" ry="12" fill="#1C1C1E" aria-hidden="true"/>
  <rect x="9" y="11" width="30" height="26" rx="2.5" ry="2.5" fill="none" stroke="#FFFFFF" stroke-width="2.5"/>
  <path d="M9 17.5 L39 17.5" fill="none" stroke="#FFFFFF" stroke-width="2"/>
  <circle cx="13" cy="14.3" r="1.2" fill="#FFFFFF"/>
  <circle cx="17.5" cy="14.3" r="1.2" fill="#FFFFFF"/>
  <path d="M17 22.5 L13.5 26 L17 29.5" fill="none" stroke="#7DAFA3" stroke-width="2.2" stroke-linecap="round" stroke-linejoin="round"/>
  <path d="M21 22.5 L24.5 26 L21 29.5" fill="none" stroke="#7DAFA3" stroke-width="2.2" stroke-linecap="round" stroke-linejoin="round"/>
  <path d="M28 23 L34 23" fill="none" stroke="#FFFFFF" stroke-width="2" stroke-linecap="round"/>
  <path d="M28 28 L32 28" fill="none" stroke="#FFFFFF" stroke-width="2" stroke-linecap="round"/>
  <path d="M13.5 33 L22 33" fill="none" stroke="#FFFFFF" stroke-width="2" stroke-linecap="round"/>
  <circle cx="37" cy="34" r="8.5" fill="#1C1C1E" stroke="#7DAFA3" stroke-width="3"/>
  <path d="M43.5 40.5 L49 46" fill="none" stroke="#7DAFA3" stroke-width="4" stroke-linecap="round"/>
  <path d="M33.5 34 L36 36.5 L41 31.5" fill="none" stroke="#FFFFFF" stroke-width="2.2" stroke-linecap="round" stroke-linejoin="round"/>
  <path d="M24 44 L24 56 L30 52 L52 52 L52 44 Z" fill="none" stroke="#FFFFFF" stroke-width="2.5" stroke-linejoin="round"/>
  <path d="M28 48 L44 48" fill="none" stroke="#7DAFA3" stroke-width="2" stroke-linecap="round"/>
</svg>
